// imperial march

/*int melody[] = {  
a4, R , a4, R , a4, R , f4, R , 
c5, R , a4, R , f4, R , c5, R ,
a4, R , e5, R , e5, R , e5, R ,
f5, R , c5, R , g5, R , f5, R ,
c5, R , a4, R};

int noteDurations[]  = {
50, 20, 50, 20, 50, 20, 40, 5 ,
20, 5 , 60, 10, 40, 5 , 20, 5 ,
60, 80, 50, 20, 50, 20, 50, 20,
40, 5 , 20, 5 , 60, 10, 40, 5 ,
20, 5 , 60, 40};
*/
//starwars theme
/*
 * int melody[] = {  
  NOTE_F4,  NOTE_F4, NOTE_F4, NOTE_AS4, NOTE_F5,  NOTE_DS5,  NOTE_D5,  NOTE_C5, 
  NOTE_AS5, NOTE_F5, NOTE_DS5,  NOTE_D5, NOTE_C5, NOTE_AS5, NOTE_F5, NOTE_DS5, NOTE_D5, NOTE_DS5,  NOTE_C5};
int noteDurations[]  = {  21,  21, 21,  128,  128,   21,  21,  21, 128, 64,  21,  21,  21, 128, 64,  21, 21,  21, 128 }; 
*/
// tetris
int melody[] = {
  NOTE_E5, NOTE_E3, NOTE_B4, NOTE_C5, NOTE_D5, NOTE_E5, NOTE_D5, NOTE_C5, 
  NOTE_B4, NOTE_A4, NOTE_A3, NOTE_A4, NOTE_C5, NOTE_E5, NOTE_A3, NOTE_D5,
  NOTE_C5, NOTE_B4, NOTE_E4, NOTE_G4, NOTE_C5, NOTE_D5, NOTE_E3, NOTE_E5,
  NOTE_E3, NOTE_C5, NOTE_A3, NOTE_A4, NOTE_A3, NOTE_A4, NOTE_A3, NOTE_B2, 
  NOTE_C3, NOTE_D3, NOTE_D5, NOTE_F5, NOTE_A5, NOTE_C5, NOTE_C5, NOTE_G5, 
  NOTE_F5, NOTE_E5, NOTE_C3, 0, NOTE_C5, NOTE_E5, NOTE_A4, NOTE_G4, NOTE_D5,
  NOTE_C5, NOTE_B4, NOTE_E4, NOTE_B4, NOTE_C5, NOTE_D5, NOTE_G4, NOTE_E5, 
  NOTE_G4, NOTE_C5, NOTE_E4, NOTE_A4, NOTE_E3, NOTE_A4, 0,
};
int noteDurations[] = {
  8,8,8,8,8,16,16,8,8,8,8,8,8,8,8,8,
  8,8,8,8,8,8,8,8,8,8,8,8,8,8,8,8,8,
  8,4,8,8,16,16,8,8,8,8,8,8,8,16,16,8,
  8,8,8,8,8,8,8,8,8,8,8,8,8,4,4,8,
};
/*
//Mario main theme melody
int melody[] = {
  NOTE_E7, NOTE_E7, 0, NOTE_E7,
  0, NOTE_C7, NOTE_E7, 0,
  NOTE_G7, 0, 0,  0,
  NOTE_G6, 0, 0, 0,
 
  NOTE_C7, 0, 0, NOTE_G6,
  0, 0, NOTE_E6, 0,
  0, NOTE_A6, 0, NOTE_B6,
  0, NOTE_AS6, NOTE_A6, 0,
 
  NOTE_G6, NOTE_E7, NOTE_G7,
  NOTE_A7, 0, NOTE_F7, NOTE_G7,
  0, NOTE_E7, 0, NOTE_C7,
  NOTE_D7, NOTE_B6, 0, 0,
 
  NOTE_C7, 0, 0, NOTE_G6,
  0, 0, NOTE_E6, 0,
  0, NOTE_A6, 0, NOTE_B6,
  0, NOTE_AS6, NOTE_A6, 0,
 
  NOTE_G6, NOTE_E7, NOTE_G7,
  NOTE_A7, 0, NOTE_F7, NOTE_G7,
  0, NOTE_E7, 0, NOTE_C7,
  NOTE_D7, NOTE_B6, 0, 0
};
//Mario main them tempo
int noteDurations[] = {
  12, 12, 12, 12,
  12, 12, 12, 12,
  12, 12, 12, 12,
  12, 12, 12, 12,
 
  12, 12, 12, 12,
  12, 12, 12, 12,
  12, 12, 12, 12,
  12, 12, 12, 12,
 
  9, 9, 9,
  12, 12, 12, 12,
  12, 12, 12, 12,
  12, 12, 12, 12,
 
  12, 12, 12, 12,
  12, 12, 12, 12,
  12, 12, 12, 12,
  12, 12, 12, 12,
 
  9, 9, 9,
  12, 12, 12, 12,
  12, 12, 12, 12,
  12, 12, 12, 12,
};*/
